<svg width="1506" height="1649" viewBox="0 0 1506 1649" fill="none" xmlns="http://www.w3.org/2000/svg">
<path d="M470.001 1526.5C496.501 1366 590.981 1074.54 550.501 728C642.359 739.388 688.381 746.377 764.501 759.5C611.862 969.013 1121.5 1446.5 1001 1562.5C880.501 1678.5 443.5 1687 470.001 1526.5Z" fill="white" stroke="black"/>
<path d="M1451.5 808.5C1246.5 906.5 82.0002 884.5 11 621C-60.0002 357.5 238.5 -12.0003 742.5 0.999703C1246.5 13.9997 1656.5 710.5 1451.5 808.5Z" fill="#B80B0B"/>
<ellipse cx="178" cy="579" rx="91" ry="78" fill="white"/>
<ellipse cx="441" cy="398" rx="91" ry="78" fill="white"/>
<ellipse cx="799" cy="627" rx="91" ry="78" fill="white"/>
<ellipse cx="1276" cy="501" rx="91" ry="78" fill="white"/>
<ellipse cx="981" cy="320" rx="91" ry="78" fill="white"/>
<ellipse cx="560" cy="119" rx="91" ry="78" fill="white"/>
</svg>
